<?xml version="1.0" standalone="no"?><svg xmlns="http://www.w3.org/2000/svg" viewBox="0 0 1440 320"><path fill="#ff7b00" fill-opacity="1" d="M0,160L26.7,170.7C53.3,181,107,203,160,181.3C213.3,160,267,96,320,90.7C373.3,85,427,139,480,144C533.3,149,587,107,640,80C693.3,53,747,43,800,80C853.3,117,907,203,960,218.7C1013.3,235,1067,181,1120,181.3C1173.3,181,1227,235,1280,213.3C1333.3,192,1387,96,1413,48L1440,0L1440,320L1413.3,320C1386.7,320,1333,320,1280,320C1226.7,320,1173,320,1120,320C1066.7,320,1013,320,960,320C906.7,320,853,320,800,320C746.7,320,693,320,640,320C586.7,320,533,320,480,320C426.7,320,373,320,320,320C266.7,320,213,320,160,320C106.7,320,53,320,27,320L0,320Z"></path></svg>